# xmcd
#
# Track frame offsets: 
#        150
#        15314
#        29287
#        54183
#        64625
#        84983
#        95383
#        122975
#        133507
#        144144
#        162534
#        176096
#        194319
#        208780
#        221924
#        239380
#        252343
#        265466
#        280059
#        291476
#
# Disc length: 3961 seconds
#
# Revision: 0
# Processed by: cddbd v1.5.2PL0 Copyright (c) Steve Scherf et al.
# Submitted via: ExactAudioCopy v1.0b1
#
DISCID=2a0f7714
DTITLE=Nancy Wilson - Kaleidoscope-I Know I Love Him
DYEAR=1973
DGENRE=Soul
TTITLE0=The Greatest Performance Of My Life
TTITLE1=If I Were Your Woman
TTITLE2=I'll Get Along Somehow
TTITLE3=Middle Of The Road
TTITLE4=Let It Be Me
TTITLE5=To Be The One You Love
TTITLE6=Mr Bojangles
TTITLE7=Ain't No Sunshine
TTITLE8=Everyone Knows
TTITLE9=Once In My Lifetime
TTITLE10=We Can Make It Baby
TTITLE11=Morning In Your Eyes
TTITLE12=Don't Misunderstand
TTITLE13=Are We Losing Touch
TTITLE14=I Was Telling Him About You
TTITLE15=Easy Evil
TTITLE16=The Laughter And The Tears
TTITLE17=Can I
TTITLE18=I Heard You Singing Your Song
TTITLE19=I Know I Love Him
EXTD=
EXTT0=
EXTT1=
EXTT2=
EXTT3=
EXTT4=
EXTT5=
EXTT6=
EXTT7=
EXTT8=
EXTT9=
EXTT10=
EXTT11=
EXTT12=
EXTT13=
EXTT14=
EXTT15=
EXTT16=
EXTT17=
EXTT18=
EXTT19=
PLAYORDER=
